<mxfile host="app.diagrams.net" agent="Mozilla/5.0 (Windows NT 10.0; Win64; x64) AppleWebKit/537.36 (KHTML, like Gecko) Chrome/139.0.0.0 Safari/537.36" version="28.1.1">
  <diagram name="Page-1" id="ZJTJrZVu4t0ESisrwwp_">
    <mxGraphModel dx="1303" dy="821" grid="1" gridSize="10" guides="1" tooltips="1" connect="1" arrows="1" fold="1" page="1" pageScale="1" pageWidth="850" pageHeight="1100" math="0" shadow="0">
      <root>
        <mxCell id="0" />
        <mxCell id="1" parent="0" />
        <mxCell id="kipz1OnptxnVXtAXXUo2-3" value="Load config file" style="whiteSpace=wrap;strokeWidth=2;" vertex="1" parent="1">
          <mxGeometry x="270" y="20" width="143" height="54" as="geometry" />
        </mxCell>
        <mxCell id="kipz1OnptxnVXtAXXUo2-4" value="Get Google News Page URLs" style="whiteSpace=wrap;strokeWidth=2;" vertex="1" parent="1">
          <mxGeometry x="250.5" y="130" width="182" height="54" as="geometry" />
        </mxCell>
        <mxCell id="kipz1OnptxnVXtAXXUo2-5" value="Scrape Google News pages" style="whiteSpace=wrap;strokeWidth=2;" vertex="1" parent="1">
          <mxGeometry x="244" y="230" width="195" height="54" as="geometry" />
        </mxCell>
        <mxCell id="kipz1OnptxnVXtAXXUo2-6" value="Pick top news" style="whiteSpace=wrap;strokeWidth=2;" vertex="1" parent="1">
          <mxGeometry x="252.5" y="340" width="178" height="54" as="geometry" />
        </mxCell>
        <mxCell id="kipz1OnptxnVXtAXXUo2-7" value="Scrape selected news articles" style="whiteSpace=wrap;strokeWidth=2;" vertex="1" parent="1">
          <mxGeometry x="245.5" y="438" width="192" height="54" as="geometry" />
        </mxCell>
        <mxCell id="kipz1OnptxnVXtAXXUo2-8" value="Analyze articles for brand monitoring" style="whiteSpace=wrap;strokeWidth=2;" vertex="1" parent="1">
          <mxGeometry x="228" y="540" width="227" height="54" as="geometry" />
        </mxCell>
        <mxCell id="kipz1OnptxnVXtAXXUo2-9" value="Generate HTML report" style="whiteSpace=wrap;strokeWidth=2;" vertex="1" parent="1">
          <mxGeometry x="250.5" y="640" width="182" height="54" as="geometry" />
        </mxCell>
        <mxCell id="kipz1OnptxnVXtAXXUo2-10" value="Send report via email" style="whiteSpace=wrap;strokeWidth=2;" vertex="1" parent="1">
          <mxGeometry x="259" y="740" width="164" height="54" as="geometry" />
        </mxCell>
        <mxCell id="kipz1OnptxnVXtAXXUo2-12" value="" style="curved=1;startArrow=none;endArrow=block;exitX=0.5;exitY=1;entryX=0.5;entryY=0;rounded=0;" edge="1" parent="1" source="kipz1OnptxnVXtAXXUo2-3" target="kipz1OnptxnVXtAXXUo2-4">
          <mxGeometry relative="1" as="geometry">
            <Array as="points" />
          </mxGeometry>
        </mxCell>
        <mxCell id="kipz1OnptxnVXtAXXUo2-13" value="" style="curved=1;startArrow=none;endArrow=block;exitX=0.5;exitY=1;entryX=0.5;entryY=0;rounded=0;" edge="1" parent="1" source="kipz1OnptxnVXtAXXUo2-4" target="kipz1OnptxnVXtAXXUo2-5">
          <mxGeometry relative="1" as="geometry">
            <Array as="points" />
          </mxGeometry>
        </mxCell>
        <mxCell id="kipz1OnptxnVXtAXXUo2-14" value="" style="curved=1;startArrow=none;endArrow=block;exitX=0.5;exitY=1;entryX=0.5;entryY=0;rounded=0;" edge="1" parent="1" source="kipz1OnptxnVXtAXXUo2-5" target="kipz1OnptxnVXtAXXUo2-6">
          <mxGeometry relative="1" as="geometry">
            <Array as="points" />
          </mxGeometry>
        </mxCell>
        <mxCell id="kipz1OnptxnVXtAXXUo2-15" value="" style="curved=1;startArrow=none;endArrow=block;exitX=0.5;exitY=1;entryX=0.5;entryY=0;rounded=0;" edge="1" parent="1" source="kipz1OnptxnVXtAXXUo2-6" target="kipz1OnptxnVXtAXXUo2-7">
          <mxGeometry relative="1" as="geometry">
            <Array as="points" />
          </mxGeometry>
        </mxCell>
        <mxCell id="kipz1OnptxnVXtAXXUo2-16" value="" style="curved=1;startArrow=none;endArrow=block;exitX=0.5;exitY=1;entryX=0.5;entryY=0;rounded=0;" edge="1" parent="1" source="kipz1OnptxnVXtAXXUo2-7" target="kipz1OnptxnVXtAXXUo2-8">
          <mxGeometry relative="1" as="geometry">
            <Array as="points" />
          </mxGeometry>
        </mxCell>
        <mxCell id="kipz1OnptxnVXtAXXUo2-17" value="" style="curved=1;startArrow=none;endArrow=block;exitX=0.5;exitY=1;entryX=0.5;entryY=0;rounded=0;" edge="1" parent="1" source="kipz1OnptxnVXtAXXUo2-8" target="kipz1OnptxnVXtAXXUo2-9">
          <mxGeometry relative="1" as="geometry">
            <Array as="points" />
          </mxGeometry>
        </mxCell>
        <mxCell id="kipz1OnptxnVXtAXXUo2-18" value="" style="curved=1;startArrow=none;endArrow=block;exitX=0.5;exitY=1;entryX=0.5;entryY=0;rounded=0;" edge="1" parent="1" source="kipz1OnptxnVXtAXXUo2-9" target="kipz1OnptxnVXtAXXUo2-10">
          <mxGeometry relative="1" as="geometry">
            <Array as="points" />
          </mxGeometry>
        </mxCell>
        <mxCell id="kipz1OnptxnVXtAXXUo2-20" style="edgeStyle=orthogonalEdgeStyle;rounded=0;orthogonalLoop=1;jettySize=auto;html=1;entryX=0.5;entryY=0;entryDx=0;entryDy=0;" edge="1" parent="1" target="kipz1OnptxnVXtAXXUo2-6">
          <mxGeometry relative="1" as="geometry">
            <mxPoint x="341" y="80" as="sourcePoint" />
            <mxPoint x="341" y="540" as="targetPoint" />
            <Array as="points">
              <mxPoint x="510" y="80" />
              <mxPoint x="510" y="320" />
              <mxPoint x="341" y="320" />
            </Array>
          </mxGeometry>
        </mxCell>
        <mxCell id="kipz1OnptxnVXtAXXUo2-22" style="edgeStyle=orthogonalEdgeStyle;rounded=0;orthogonalLoop=1;jettySize=auto;html=1;entryX=0.5;entryY=0;entryDx=0;entryDy=0;exitX=0.015;exitY=0.848;exitDx=0;exitDy=0;exitPerimeter=0;" edge="1" parent="1" source="kipz1OnptxnVXtAXXUo2-19" target="kipz1OnptxnVXtAXXUo2-10">
          <mxGeometry relative="1" as="geometry">
            <mxPoint x="300" y="100" as="sourcePoint" />
            <Array as="points">
              <mxPoint x="340" y="109" />
              <mxPoint x="80" y="110" />
              <mxPoint x="80" y="720" />
              <mxPoint x="341" y="720" />
            </Array>
          </mxGeometry>
        </mxCell>
        <mxCell id="kipz1OnptxnVXtAXXUo2-19" value="Search queries" style="text;html=1;align=center;verticalAlign=middle;whiteSpace=wrap;rounded=0;" vertex="1" parent="1">
          <mxGeometry x="340" y="84" width="100" height="30" as="geometry" />
        </mxCell>
        <mxCell id="kipz1OnptxnVXtAXXUo2-21" value="Number of news&amp;nbsp;" style="text;html=1;align=center;verticalAlign=middle;whiteSpace=wrap;rounded=0;" vertex="1" parent="1">
          <mxGeometry x="510" y="184" width="100" height="30" as="geometry" />
        </mxCell>
        <mxCell id="kipz1OnptxnVXtAXXUo2-23" value="&lt;div&gt;Sender email address&lt;/div&gt;&lt;div&gt;&lt;br&gt;Recipients’ email addresses&lt;/div&gt;" style="text;html=1;align=left;verticalAlign=middle;whiteSpace=wrap;rounded=0;" vertex="1" parent="1">
          <mxGeometry x="83" y="400" width="190" height="30" as="geometry" />
        </mxCell>
        <mxCell id="kipz1OnptxnVXtAXXUo2-24" value="🛠️Bright Data SDK" style="rounded=0;whiteSpace=wrap;html=1;fillColor=#1ba1e2;fontColor=#ffffff;strokeColor=#006EAF;fontSize=10;" vertex="1" parent="1">
          <mxGeometry x="338" y="168" width="92.5" height="14" as="geometry" />
        </mxCell>
        <mxCell id="kipz1OnptxnVXtAXXUo2-25" value="🛠️ Bright Data SDK" style="rounded=0;whiteSpace=wrap;html=1;fillColor=#1ba1e2;fontColor=#ffffff;strokeColor=#006EAF;fontSize=10;" vertex="1" parent="1">
          <mxGeometry x="344.5" y="268" width="92.5" height="14" as="geometry" />
        </mxCell>
        <mxCell id="kipz1OnptxnVXtAXXUo2-26" value="🛠️ Bright Data SDK" style="rounded=0;whiteSpace=wrap;html=1;fillColor=#1ba1e2;fontColor=#ffffff;strokeColor=#006EAF;fontSize=10;" vertex="1" parent="1">
          <mxGeometry x="343.5" y="476" width="92.5" height="14" as="geometry" />
        </mxCell>
        <mxCell id="kipz1OnptxnVXtAXXUo2-27" value="🧠 OpenAI API" style="rounded=0;whiteSpace=wrap;html=1;fillColor=#76608a;fontColor=#ffffff;strokeColor=#432D57;fontSize=10;" vertex="1" parent="1">
          <mxGeometry x="378" y="578" width="75" height="14" as="geometry" />
        </mxCell>
        <mxCell id="kipz1OnptxnVXtAXXUo2-28" value="🧠 OpenAI API" style="rounded=0;whiteSpace=wrap;html=1;fillColor=#76608a;fontColor=#ffffff;strokeColor=#432D57;fontSize=10;" vertex="1" parent="1">
          <mxGeometry x="355.5" y="678" width="75" height="14" as="geometry" />
        </mxCell>
        <mxCell id="kipz1OnptxnVXtAXXUo2-29" value="🧠 OpenAI API" style="rounded=0;whiteSpace=wrap;html=1;fillColor=#76608a;fontColor=#ffffff;strokeColor=#432D57;fontSize=10;" vertex="1" parent="1">
          <mxGeometry x="353.25" y="378" width="75" height="14" as="geometry" />
        </mxCell>
        <mxCell id="kipz1OnptxnVXtAXXUo2-30" value="📩&amp;nbsp;SendGrid SDK" style="rounded=0;whiteSpace=wrap;html=1;fillColor=#e51400;fontColor=#ffffff;strokeColor=#B20000;fontSize=10;" vertex="1" parent="1">
          <mxGeometry x="336" y="778" width="85" height="14" as="geometry" />
        </mxCell>
      </root>
    </mxGraphModel>
  </diagram>
</mxfile>
